<mxfile host="app.diagrams.net" modified="2024-02-29T18:41:21.187Z" agent="Mozilla/5.0 (Windows NT 10.0; Win64; x64) AppleWebKit/537.36 (KHTML, like Gecko) Chrome/122.0.0.0 Safari/537.36" version="24.0.0" etag="kAPvbyryDHPwvbpdvOZ0" type="github">
  <diagram name="Page-1" id="_a8A8M-N-ahiZxb98R8h">
    <mxGraphModel>
      <root>
        <mxCell id="0" />
        <mxCell id="1" parent="0" />
      </root>
    </mxGraphModel>
  </diagram>
</mxfile>
